<?xml version="1.0" encoding="UTF-8" standalone="no"?>
<!DOCTYPE svg PUBLIC "-//W3C//DTD SVG 1.1//EN"
 "http://www.w3.org/Graphics/SVG/1.1/DTD/svg11.dtd">
<!-- Generated by graphviz version 2.38.0 (20140413.2041)
 -->
<!-- Title: %3 Pages: 1 -->
<svg width="786pt" height="260pt"
 viewBox="0.00 0.00 786.22 260.00" xmlns="http://www.w3.org/2000/svg" xmlns:xlink="http://www.w3.org/1999/xlink">
<g id="graph0" class="graph" transform="scale(1 1) rotate(0) translate(4 256)">
<title>%3</title>
<polygon fill="white" stroke="none" points="-4,4 -4,-256 782.216,-256 782.216,4 -4,4"/>
<!-- [root] aws_instance.example -->
<g id="node1" class="node"><title>[root] aws_instance.example</title>
<polygon fill="none" stroke="black" points="535.128,-108 358.128,-108 358.128,-72 535.128,-72 535.128,-108"/>
<text text-anchor="middle" x="446.628" y="-86.3" font-family="Times,serif" font-size="14.00">aws_instance.example</text>
</g>
<!-- [root] provider.aws -->
<g id="node2" class="node"><title>[root] provider.aws</title>
<polygon fill="none" stroke="black" points="446.628,-36 347.59,-18 446.628,-3.55271e-15 545.667,-18 446.628,-36"/>
<text text-anchor="middle" x="446.628" y="-14.3" font-family="Times,serif" font-size="14.00">provider.aws</text>
</g>
<!-- [root] aws_instance.example&#45;&gt;[root] provider.aws -->
<g id="edge1" class="edge"><title>[root] aws_instance.example&#45;&gt;[root] provider.aws</title>
<path fill="none" stroke="black" d="M446.628,-71.6966C446.628,-63.9827 446.628,-54.7125 446.628,-46.1124"/>
<polygon fill="black" stroke="black" points="450.128,-46.1043 446.628,-36.1043 443.128,-46.1044 450.128,-46.1043"/>
</g>
<!-- [root] meta.count&#45;boundary (count boundary fixup) -->
<g id="node3" class="node"><title>[root] meta.count&#45;boundary (count boundary fixup)</title>
<ellipse fill="none" stroke="black" cx="247.628" cy="-162" rx="247.756" ry="18"/>
<text text-anchor="middle" x="247.628" y="-158.3" font-family="Times,serif" font-size="14.00">[root] meta.count&#45;boundary (count boundary fixup)</text>
</g>
<!-- [root] meta.count&#45;boundary (count boundary fixup)&#45;&gt;[root] aws_instance.example -->
<g id="edge2" class="edge"><title>[root] meta.count&#45;boundary (count boundary fixup)&#45;&gt;[root] aws_instance.example</title>
<path fill="none" stroke="black" d="M295.041,-144.322C323.153,-134.434 358.99,-121.827 388.761,-111.355"/>
<polygon fill="black" stroke="black" points="389.924,-114.656 398.196,-108.036 387.601,-108.053 389.924,-114.656"/>
</g>
<!-- [root] provider.aws (close) -->
<g id="node4" class="node"><title>[root] provider.aws (close)</title>
<ellipse fill="none" stroke="black" cx="645.628" cy="-162" rx="132.677" ry="18"/>
<text text-anchor="middle" x="645.628" y="-158.3" font-family="Times,serif" font-size="14.00">[root] provider.aws (close)</text>
</g>
<!-- [root] provider.aws (close)&#45;&gt;[root] aws_instance.example -->
<g id="edge3" class="edge"><title>[root] provider.aws (close)&#45;&gt;[root] aws_instance.example</title>
<path fill="none" stroke="black" d="M599.973,-144.941C571.706,-134.997 535.142,-122.135 504.808,-111.465"/>
<polygon fill="black" stroke="black" points="505.791,-108.101 495.197,-108.084 503.469,-114.704 505.791,-108.101"/>
</g>
<!-- [root] root -->
<g id="node5" class="node"><title>[root] root</title>
<ellipse fill="none" stroke="black" cx="446.628" cy="-234" rx="58.4896" ry="18"/>
<text text-anchor="middle" x="446.628" y="-230.3" font-family="Times,serif" font-size="14.00">[root] root</text>
</g>
<!-- [root] root&#45;&gt;[root] meta.count&#45;boundary (count boundary fixup) -->
<g id="edge4" class="edge"><title>[root] root&#45;&gt;[root] meta.count&#45;boundary (count boundary fixup)</title>
<path fill="none" stroke="black" d="M409.664,-219.998C380.303,-209.67 338.725,-195.044 305.038,-183.195"/>
<polygon fill="black" stroke="black" points="305.907,-179.79 295.312,-179.773 303.584,-186.393 305.907,-179.79"/>
</g>
<!-- [root] root&#45;&gt;[root] provider.aws (close) -->
<g id="edge5" class="edge"><title>[root] root&#45;&gt;[root] provider.aws (close)</title>
<path fill="none" stroke="black" d="M483.592,-219.998C513.567,-209.454 556.275,-194.431 590.32,-182.455"/>
<polygon fill="black" stroke="black" points="591.856,-185.625 600.128,-179.005 589.534,-179.022 591.856,-185.625"/>
</g>
</g>
</svg>
